Patient4_TMGait_0pt7_01_left_16_EMG.mot
version=1
nRows=40
nColumns=33
inDegrees=no
endheader
time	1LAddLong	2LGlutMax	3LGlutMed	4LIliopsoas	5LSemiMemb	6LBicFemLong	7LRecFem	8LVastMed	9LVastLat	10LGasMed	11LTibAnt	12lTibPost	13LPeroneusLong	14LSol	15LExtDigLong	16LFlexDigLong	17RAddLong	18RGlutMax	19RGlutMed	20RIliopsoas	21RSemiMemb	22RBicFemLong	23RRecFem	24RVastMed	25RVastLat	26RGasMed	27RTibAnt	28RTibPost	29RPeroneusLong	30RSol	31RExtDigLong	32RFlexDigLong
19.125	0.008392	0.19211	0.55679	0.010834	0.025024	-0.039825	-0.33432	-0.004883	-0.040588	0.20828	0.003357	-0.006104	-0.10117	-0.12604	0.071106	-0.009003	0.1535	-0.21957	-0.23712	0.027771	-0.049286	-0.034027	0.15335	-0.45197	-0.10971	-0.014038	-0.42572	0.010681	0.085144	0.22736	0.000153	-0.013885
19.126	0.006409	0.2066	0.53314	0.019989	0.014038	-0.044708	-0.34515	-0.000763	-0.04364	0.20996	0.014954	0.010223	-0.050354	-0.029144	0.06012	-1.4006	0.00061	-0.1265	-0.1178	0.056152	-0.10498	0.24918	-0.028839	-0.35233	0.1857	-0.015411	-0.31189	-0.002441	-0.12024	0.30548	-0.000305	-0.010223
19.127	0.009766	0.15839	0.53909	0.022888	0.012054	-0.013733	-0.33814	0.005493	-0.036011	0.44723	-0.009766	0.006104	0.032959	-0.091248	0.046844	0.78674	-0.17609	-0.014801	-0.1831	-0.001984	0.095825	0.51148	-0.28214	-0.016632	0.41763	-0.024109	-0.14084	-0.010529	-0.10696	0.21362	-0.000458	-0.014038
19.128	0.00885	0.10025	0.53314	0.020599	0.008698	-0.024109	-0.33493	0.001984	-0.033264	0.075378	-0.014343	0.011292	0.15289	-0.2269	0.016632	0.49591	-0.31464	0.071259	0.035706	-0.040741	0.092926	0.71228	-0.49362	0.31052	0.41977	-0.008087	-0.19104	-0.016632	0.41214	0.18036	0.000153	-0.002136
19.129	0.003052	0.11078	0.54031	0.019684	0.015259	-0.029602	-0.31921	-0.000305	-0.032349	0.052338	0.001068	-0.021057	0.1442	-0.21881	-0.019073	-0.18082	-0.23102	0.11292	0.35934	-0.090179	0.23102	0.61371	-0.4892	0.46265	0.36758	-0.011902	-0.16449	-0.013733	0.53879	0.18448	-0.000305	-0.014496
19.13	0.001984	0.12756	0.54153	0.02243	0.012817	-0.021057	-0.29251	-0.004883	-0.041046	0.38773	0.019073	-0.014954	0.087585	-0.17929	-0.03952	-0.040588	-0.14694	0.077209	0.35965	-0.050659	0.22446	0.53421	-0.20157	0.33707	0.29022	-0.015869	-0.11917	-0.020905	0.42145	0.056763	-0.004272	-0.012817
19.131	0.002747	0.095215	0.5423	0.02594	-0.005493	0.015564	-0.2681	-0.003967	-0.024719	0.088043	0.016785	0.001984	0.053558	-0.18066	-0.020599	0.058746	-0.12619	0.037537	-0.17288	-0.027313	0.12466	0.46402	-0.21698	0.18646	0.21042	-0.013733	-0.059357	-0.020294	-0.69763	-0.012512	0.000763	-0.011292
19.132	0.009003	0.10757	0.54886	0.016174	-0.012665	0.041504	-0.26398	-0.00473	-0.024261	-0.40237	0.028381	0.002441	0.034485	-0.2301	0.013123	0.13565	-0.10956	0.15442	-0.016937	-0.06073	0.075073	0.37491	-0.32364	0.31006	0.24521	-0.013123	-0.13779	-0.01709	-0.59174	0.044861	-0.000916	-0.005951
19.133	0.009766	0.092468	0.54825	0.006714	-0.019989	0.016479	-0.25909	-0.000305	-0.029297	-0.4277	0.015259	0.010223	0.056305	-0.12619	0.02243	0.098724	-0.043335	0.20508	0.20371	-0.045776	0.019684	0.14618	-0.22995	0.29495	0.2066	-0.016327	0.079041	-0.016632	-1.5518	0.054626	-0.001678	-0.009918
19.134	0.011902	0.087738	0.54886	0.019226	-0.015106	0.005798	-0.24612	-0.006561	-0.022583	0.018921	0.009003	0.001984	0.012512	-0.026703	-0.056763	0.018005	0.053558	0.10696	-0.046692	-0.0737	-0.13916	0.014191	0.06546	0.11475	0.088043	-0.010071	0.23392	-0.019226	-0.58762	0.034943	0.009766	-0.002441
19.135	0.011444	0.10422	0.5719	0.008698	0.002441	-0.021057	-0.22919	0.001678	-0.025024	-0.2002	0.00885	-0.007172	-0.046082	0.006714	-0.043945	0.007019	0.1358	0.26581	-0.3038	-0.13657	-0.23911	-0.054932	0.1944	-0.17212	-0.016479	-0.011139	0.25299	-0.018158	0.44327	0.032806	0.000458	-0.003357
19.136	0.010376	0.17258	0.55985	0.026855	-0.001678	0.01236	-0.22537	-0.001984	-0.023041	-0.15396	0.025787	-0.002136	-0.11154	-0.009613	0.014038	-0.002747	0.17853	0.29739	-0.57663	-0.16052	-0.47302	-0.093689	0.22903	-0.32974	-0.032501	-0.00351	0.23041	-0.015259	1.5431	0.027313	0	-0.004425
19.137	0.020599	0.17822	0.56854	0.020142	-0.002441	0.022888	-0.22446	-0.003204	-0.026245	0.19028	0.027771	0.009918	-0.080719	-0.007324	0.021973	-0.093231	0.18646	0.2449	-0.76874	-0.12299	-0.51819	-0.080566	0.20294	-0.24277	-0.086975	-0.013275	0.25467	-0.019073	0.53223	0.042114	-0.002136	-0.002136
19.138	0.016022	0.19684	0.56686	0.00946	0.00473	0.051575	-0.2211	-0.00351	-0.017395	0.18219	0.014496	0.010223	-0.078888	0.15671	-0.001373	-0.048218	0.076599	-0.021667	-0.43701	-0.032501	-0.3154	0.13214	-0.078278	-0.16174	-0.16281	-0.006561	0.19653	-0.01236	0.2771	0.014648	-0.000458	-0.011292
19.139	0.015564	0.21637	0.55512	0.019989	0.002594	0.068512	-0.1944	-0.007935	-0.00473	-0.48889	0.014648	0.013275	-0.093079	0.34332	-0.013885	0.057526	-0.04303	-0.23956	-0.33279	0.13733	-0.32715	0.27878	-0.076752	0.003204	-0.085754	-0.015564	0.17517	-0.012665	-0.55283	-0.062866	0.001831	-0.006714
19.14	0.016174	0.20569	0.56046	0.0177	0.023651	0.063477	-0.15808	-0.005493	-0.006104	-0.78659	0.031281	0.015259	-0.13275	0.35919	-0.021515	-0.35126	-0.12863	-0.32013	-0.27679	0.27832	0.033112	0.45395	-0.017395	-0.084534	-0.054016	-0.025482	0.1326	-0.014496	-0.112	-0.052338	0.001068	-0.010071
19.141	0.016479	0.25192	0.54321	0.027466	0.028839	0.03891	-0.16495	-0.003662	-0.015869	-0.50797	0.023651	-0.024261	-0.1152	0.4068	0.003815	-0.67871	-0.18295	-0.3981	-0.44815	0.16281	0.71472	0.52597	-0.011902	0.020447	-0.085297	-0.012665	0.036774	-0.005188	0.38467	-0.045166	0.000763	-0.016174
19.142	0.010986	0.27725	0.54199	0.02182	-0.003967	-0.000763	-0.16068	-0.001831	-0.014191	-0.27039	0.018311	-0.26352	0.067749	0.5336	0.029755	0.58304	-0.11261	-0.33371	0.1857	0.085297	0.84167	0.5069	0.007019	0.010071	0.20111	-0.01297	-0.087891	-0.007477	0.40451	-0.018921	-0.00061	-0.016785
19.143	0.016937	0.20767	0.52582	0.016327	-0.005798	-0.023804	-0.11246	-0.007477	-0.015106	0.1297	0.01236	0.37979	0.17716	0.5278	0.011444	0.23499	-0.081024	-0.53711	0.24826	0.097046	0.49271	0.26901	-0.003967	-0.073395	0.71564	-0.00946	-0.088501	-0.00351	0.40054	-0.031281	-0.000305	-0.010986
19.144	0.013275	0.18875	0.50995	0.016174	-0.018005	0.001678	-0.085602	-0.004883	-0.014343	0.34363	0.012665	0.063934	0.22003	0.30807	0.001373	-0.061493	-0.038452	-0.74036	-0.49408	0.057678	0.38727	0.13168	-0.098724	-0.26947	0.95901	-0.017242	-0.11078	-0.00412	0.38162	0.032043	0.001221	-0.014191
19.145	0.066528	0.18753	0.51361	0.012207	-0.028992	-0.019226	-0.11826	-0.006714	-0.021515	0.59372	0.014496	-0.016327	0.021515	0.28686	0.018158	0.072021	0.015106	-0.64423	-0.50583	0.03067	0.45105	0.14069	-0.26367	-0.32974	0.72937	-0.030365	-0.044556	-0.002289	-0.103	0.021667	-0.000458	-0.011292
19.146	-0.008545	0.19241	0.50278	0.01236	-0.016479	-0.071716	-0.12436	-0.002441	-0.009766	0.83481	-0.002441	0.17761	-0.053253	0.16419	0.049591	0.059204	0.071716	-0.57785	-0.38452	-0.00885	0.18982	0.18692	-0.38666	-0.44647	0.26916	-0.017395	0.036926	-0.000763	-0.44174	-0.047913	0.000763	-0.00351
19.147	0.036621	0.19333	0.47516	0.016022	0.013123	-0.077057	-0.078888	-0.00412	-0.003815	0.39612	-0.00412	-0.29053	-0.050812	0.14877	0.041962	-0.62103	0.12116	-0.33722	-0.34866	-0.00412	0.10376	0.33112	-0.098419	-0.30075	-0.16037	-0.014191	0.13947	0.001678	-0.085144	-0.11429	-0.001373	-0.005341
19.148	0.025787	0.20691	0.47043	0.023346	0.038605	-0.061798	-0.054779	0.000305	-0.002441	0.21744	0.005188	-0.089111	-0.072021	0.29159	-0.02533	0.22675	0.15549	-0.20828	-0.29159	-0.018311	0.060425	0.50278	0.078125	-0.37277	-0.29602	-0.014801	0.38147	-0.006561	-0.27115	-0.13489	-0.001068	-0.000305
19.149	0.017548	0.18021	0.48889	0.012512	0.033417	-0.016327	-0.044403	-0.007324	-0.012207	-0.24246	0.006714	0.19775	-0.006409	-0.065918	-0.059662	-0.089874	0.15656	0.022278	-0.11017	-0.04715	0.12787	0.4686	0.10727	-0.26169	-0.27863	-0.001678	0.54764	-0.000305	-0.73135	-0.12695	0.001831	-0.000305
19.15	0.015106	0.15427	0.49972	-0.002747	0.008392	0.04364	-0.062561	0.004883	-0.020142	-0.33875	0.001068	-0.20584	0.11185	-0.63446	-0.020599	-0.010986	0.14252	0.21362	-0.20767	-0.029297	0.15137	0.53802	0.18021	-0.09491	-0.29831	-0.005188	0.59509	0.014191	-0.63644	-0.13245	-0.003204	-0.006409
19.151	0.014191	0.16007	0.50247	0.01709	-0.013885	0.080109	-0.07019	0.003052	-0.005341	-0.21637	0.002899	0.071411	0.24597	-0.47379	-0.019379	0.31311	0.11627	0.25894	-0.31464	-0.04425	0.12878	0.72479	0.24414	-0.020294	-0.19913	-0.012207	0.37018	0.088348	-0.34851	-0.10574	-0.000763	-0.003052
19.152	0.010223	0.13992	0.47333	0.012512	-0.003357	-0.010071	-0.042267	-0.00473	0	-0.22629	0.008087	0.026398	0.21316	-0.20508	-0.000916	0.14313	0.14954	0.24277	-0.26428	-0.048676	-0.018311	0.84228	0.25177	0.15045	-0.19165	-0.011444	-0.24353	-0.29312	0.42618	-0.084686	-0.007629	-0.001831
19.153	0.013275	0.10635	0.45212	0.021362	0.020752	-0.15656	-0.037537	-0.000153	-0.016937	-0.22018	-0.009766	0.021515	0.14725	-0.016785	0.058289	-0.007019	0.12924	0.18814	-0.30853	-0.025024	-0.16037	0.8696	0.29724	-0.007629	-0.20889	-0.007629	-0.43274	0.006409	0.76324	-0.060883	-0.000916	-0.001984
19.154	0.020294	0.089111	0.46295	0.027313	0.055695	-0.19272	-0.049896	-0.004883	-0.000458	-0.2298	0.022736	0.029449	0.10513	-0.14725	0.042877	-0.008698	0.0737	0.12863	-0.36621	-0.020447	-0.10407	0.7016	0.41458	0.067139	-0.12665	-0.007019	-0.071411	0.11078	0.69519	0.019836	-0.00061	-0.00473
19.155	0.028839	0.06958	0.44983	0.021973	0.066376	-0.21576	-0.04715	0.006714	-0.009613	-0.097351	0.028381	-0.046539	0.040894	-0.17822	0.015869	0.23025	0.015869	0.15228	-0.31418	-0.044556	0.00885	0.62454	0.34012	0.22903	-0.080261	-0.010986	0.47852	0.047455	0.2092	-0.033722	-0.001526	0.002441
19.156	0.02655	0.050659	0.44083	0.013885	0.046082	-0.095062	-0.060272	0.00473	-0.022278	-0.011292	0.017395	-0.005951	0.039368	-0.11246	0.006409	-0.44662	-0.037537	0.098114	-0.32577	-0.13397	0.054932	0.62012	0.34454	0.23758	-0.168	-0.000763	0.94391	0.021057	-0.44754	-0.18219	0.006561	-0.014496
19.157	0.019836	0.045319	0.42465	0.018768	0.021667	0.018463	-0.097351	0.001068	-0.011902	0.076294	0.013428	0.005341	0.058594	-0.01709	0.032959	0.27878	-0.036469	0.042572	-0.25986	-0.20096	0.22675	0.56961	0.27313	-0.091705	-0.33661	-0.005798	0.81421	0.01297	-0.51865	-0.27283	-0.000458	-0.008545
19.158	0.025635	0.023041	0.42389	0.014496	0.009155	0.042419	-0.112	0.001984	-0.015106	0.06485	0.005493	-0.023804	0.061646	0.068054	0.051575	0.17944	-0.00351	-0.15915	-0.27191	-0.12436	0.61172	0.54062	0.17029	-0.21255	-0.17151	-0.002899	0.032806	0.003967	0.10239	-0.18845	-0.000458	-0.008545
19.159	0.025635	0.016174	0.43091	0.017853	-0.003052	0.000153	-0.13412	0.007324	-0.005493	-0.089264	0.009613	0.12848	0.015106	0.002747	0.055542	-0.11948	-0.02243	-0.30838	-0.1474	0.005341	0.62378	0.52994	0.22186	-0.16525	-0.083008	-0.014343	-1.0956	-0.002289	0.22736	-0.027924	-0.00412	-0.009155
19.16	0.030212	-0.015106	0.42297	0.016022	-0.011444	-0.042267	-0.13962	0.000305	0.001831	-0.031281	0.013275	0.003967	-0.059814	-0.17425	0.059509	-0.44495	-0.020447	-0.26871	-0.21255	0.071564	0.47089	0.62088	0.27771	-0.22293	-0.051422	-0.005646	-1.1026	-0.002441	-0.6395	-0.070038	-0.001678	-0.010834
19.161	0.027466	-0.048676	0.42282	0.019073	-0.015717	-0.054169	-0.13534	-0.001678	0.002289	-0.20737	0.006104	-0.12894	0.006866	-0.37506	0.077972	0.87738	0.066223	-0.19455	-0.18478	0.1416	0.46539	0.43915	0.38696	-0.14938	-0.046692	-0.007935	-0.4895	-0.004578	-0.32577	-0.079498	-0.000916	-0.012207
19.162	0.031586	-0.014191	0.41824	0.0177	0.009918	-0.097046	-0.15915	-0.004272	0.00824	-0.53802	0.007172	-0.054779	-0.06073	-0.31845	0.062714	-0.31128	0.11536	0.027008	-0.17792	0.12405	0.39322	0.29511	0.30991	0.006866	-0.038757	-0.009155	0.018311	-0.007629	-0.44327	-0.089722	0.000305	0.004272
19.163	0.036316	-0.03418	0.4129	0.011597	0.000305	-0.07309	-0.16068	-0.004883	0.003815	-0.33005	-0.005493	0.327	0.007782	-0.43808	0.066833	-0.18921	0.040131	0.082397	-0.18646	0.016479	0.29648	0.36179	0.20752	-0.22415	-0.079956	-0.007629	0.15457	-0.01297	-0.40436	-0.046844	0.00824	0.002899
19.164	0.041504	-0.052643	0.40771	0.018616	0.006866	-0.029907	-0.14786	-0.008545	0	0.1535	0.002899	-0.24628	-0.055084	-0.19714	0.060577	-0.12192	-0.046997	0.18478	-0.19196	0.000458	0.094452	0.35584	0.09201	-0.18921	-0.024719	-0.001831	-0.010529	-0.011444	-0.29678	-0.042419	0.000916	-0.001373
